<svg width="200" height="200" viewBox="0 0 200 200" fill="none" xmlns="http://www.w3.org/2000/svg">
<circle cx="99.5" cy="102.5" r="82.5" fill="white"/>
<circle cx="99" cy="102" r="79" fill="url(#paint0_linear_4125_3)"/>
<circle cx="91" cy="110" r="70" fill="white"/>
<circle cx="102" cy="100" r="65" fill="url(#paint1_linear_4125_3)"/>
<circle cx="91.5" cy="108.5" r="56.5" fill="white"/>
<circle cx="95.5" cy="104.5" r="52.5" fill="#180303"/>
<ellipse cx="88" cy="106.5" rx="46" ry="46.5" fill="white"/>
<path fill-rule="evenodd" clip-rule="evenodd" d="M91.6085 84C91.6085 83.4477 91.1608 83 90.6085 83H86.1396C85.5873 83 85.1396 83.4477 85.1396 84V86.6712C85.1396 87.2773 85.6746 87.7422 86.2787 87.694C86.8175 87.6511 87.3621 87.6293 87.9119 87.6293C88.7617 87.6293 89.5993 87.6815 90.4218 87.783C91.0419 87.8595 91.6085 87.3891 91.6085 86.7643V84ZM85.1396 129.056C85.1396 128.556 84.7696 128.136 84.2776 128.047C76.3209 126.608 69.974 120.53 68.1269 112.709C68.0146 112.234 67.5916 111.89 67.1031 111.902L64.1341 111.975C63.5819 111.989 63.1234 111.552 63.1099 111L63.0003 106.52C62.9868 105.968 63.4234 105.509 63.9755 105.496L66.5816 105.432C67.1936 105.417 67.6736 105.95 67.631 106.561C67.6017 106.982 67.5852 107.407 67.5818 107.835C67.6709 96.6609 76.7389 87.6306 87.9119 87.6306C91.6441 87.6306 95.1414 88.6382 98.1476 90.3967C98.5698 90.6436 99.1109 90.5739 99.439 90.2112L101.101 88.3736C101.472 87.9635 102.106 87.9323 102.515 88.3042L105.828 91.3124C106.236 91.6832 106.267 92.3145 105.897 92.7235L104.269 94.5229C103.938 94.8887 103.926 95.4394 104.22 95.8351C106.674 99.1312 108.155 103.196 108.239 107.604C108.226 106.916 108.179 106.237 108.099 105.567C108.027 104.959 108.48 104.403 109.092 104.388L111.864 104.32C112.416 104.306 112.875 104.743 112.888 105.295L112.998 109.775C113.011 110.327 112.575 110.786 112.023 110.799L108.885 110.876C108.397 110.888 107.991 111.252 107.902 111.733C107.505 113.882 106.772 115.912 105.758 117.767C105.528 118.189 105.606 118.717 105.965 119.037L108.422 121.225C108.834 121.591 108.871 122.222 108.505 122.635L105.534 125.983C105.167 126.397 104.534 126.434 104.121 126.067L101.828 124.025C101.454 123.691 100.891 123.689 100.498 124C98.1656 125.844 95.4205 127.187 92.4243 127.868C91.9538 127.975 91.6085 128.386 91.6085 128.868V132C91.6085 132.552 91.1608 133 90.6085 133H86.1396C85.5873 133 85.1396 132.552 85.1396 132V129.056ZM108.243 108.001C108.243 108.001 108.243 108.001 108.243 108.001V108.001ZM71.1465 121.486C71.562 121.027 72.2897 121.053 72.7003 121.517C73.6188 122.554 74.6414 123.496 75.7516 124.328C76.2412 124.694 76.3318 125.406 75.9215 125.859L73.7251 128.287C73.354 128.697 72.7206 128.728 72.3112 128.357L68.9987 125.348C68.5904 124.978 68.5594 124.346 68.9294 123.937L71.1465 121.486ZM74.5469 92.649C75.0176 92.2373 75.0437 91.5005 74.5767 91.0846L72.6158 89.3384C72.2028 88.9706 71.5697 89.0079 71.2027 89.4216L68.2324 92.7699C67.8664 93.1825 67.9035 93.8135 68.3154 94.1803L70.1953 95.8544C70.6476 96.2572 71.3499 96.1673 71.7159 95.6848C72.5548 94.5788 73.5039 93.5614 74.5469 92.649ZM103.623 108.001C103.623 116.694 96.5889 123.741 87.9124 123.741C79.2359 123.741 72.2022 116.694 72.2022 108.001C72.2022 99.3072 79.2359 92.2598 87.9124 92.2598C96.5889 92.2598 103.623 99.3072 103.623 108.001Z" fill="#130505"/>
<path fill-rule="evenodd" clip-rule="evenodd" d="M125 108C125 128.435 108.435 145 88 145C67.5655 145 51 128.435 51 108C51 101.948 52.4532 96.2345 55.0298 91.1908L58.8687 90.7012L61.1396 94.3835L61.5865 93.4479L59.716 90.4763L59.7405 90.425L63.2275 90.0129L63.6745 89.0772L59.4075 89.5733L57.6627 86.8131C64.3521 77.2524 75.4459 71 88 71C108.435 71 125 87.5655 125 108ZM57.1277 87.599C56.5571 88.4608 56.0215 89.3479 55.5232 90.2582L58.5625 89.9252L58.587 89.8739L57.1277 87.599ZM126 108C126 128.987 108.987 146 88 146C67.0132 146 50 128.987 50 108C50 87.0132 67.0132 70 88 70C108.987 70 126 87.0132 126 108ZM115 108C115 122.912 102.912 135 88 135C73.0883 135 61 122.912 61 108C61 93.0883 73.0883 81 88 81C102.912 81 115 93.0883 115 108ZM116 108C116 123.464 103.464 136 88 136C72.536 136 60 123.464 60 108C60 107.749 60.0033 107.498 60.0099 107.248L53.2508 107.641L53.1998 106.761L60.047 106.364C60.0724 105.924 60.1079 105.486 60.1534 105.051L56.6274 103.058L53.1329 105.608L53.0728 104.573L55.9847 102.526L55.9814 102.469L52.8524 100.773L52.7923 99.7375L56.555 101.81L60.0528 99.3163L60.1129 100.351L57.2577 102.395L57.261 102.452L60.2673 104.115C62.1584 90.49 73.8542 80 88 80C103.464 80 116 92.536 116 108ZM88 80H87.1136L85.2386 77.0312H85.1818L83.3068 80H82.2699L84.6136 76.3636L82.2699 72.7273H83.3068L85.1818 75.7528H85.2386L87.1136 72.7273H88.1506L85.8636 76.3636L88.1506 80H88ZM90.1774 80H89.2967V72.7273H90.1774V80ZM92.8239 80H91.9432V72.7273H92.8239V80ZM74.433 135.278L72.9066 141.587L73.6807 142.091L75.4054 134.538L74.6432 134.042L68.4405 138.684L69.2146 139.188L74.3615 135.231L74.433 135.278ZM70.7161 131.489L66.7523 137.587L67.4907 138.067L71.4544 131.969L70.7161 131.489ZM68.4972 130.047L64.5335 136.145L65.2718 136.625L69.2355 130.527L68.4972 130.047ZM108.517 137.726L103.717 133.355L103.642 133.395L104.638 139.81L103.825 140.247L102.735 132.577L103.535 132.146L109.33 137.289L108.517 137.726ZM89.0677 137.458L90.9388 143.674L91.8611 143.717L89.5329 136.327L88.6248 136.285L85.6179 143.425L86.5402 143.468L88.9826 137.454L89.0677 137.458ZM83.9459 136.067L83.6066 143.331L84.4863 143.372L84.8256 136.108L83.9459 136.067ZM58.0814 129.22L62.6084 124.567L62.5705 124.491L56.1263 125.274L55.7163 124.447L63.4186 123.611L63.8222 124.425L58.4913 130.047L58.0814 129.22ZM54.8223 122.643L61.3389 119.414L61.7299 120.203L55.2133 123.432L54.8223 122.643ZM53.6473 120.272L60.1638 117.043L60.5549 117.832L54.0383 121.061L53.6473 120.272ZM52.4722 117.9L58.9888 114.671L59.3798 115.46L52.8633 118.689L52.4722 117.9ZM113.42 121.793L118.999 126.458L119.564 125.783L113.984 121.117L113.42 121.793ZM111.593 125.771L117.675 128.042L118.267 127.333L110.975 124.716L110.391 125.414L114.257 132.128L114.85 131.42L111.538 125.836L111.593 125.771ZM123.274 108.763L116.001 108.766L116 107.885L123.273 107.882L123.274 108.763ZM123.275 111.409L116.002 111.413L116.002 110.532L123.274 110.528L123.275 111.409ZM123.276 114.056L116.003 114.059L116.003 113.178L123.276 113.175L123.276 114.056ZM119.233 90.1029L113.664 94.781L113.098 94.1067L118.666 89.4286L119.233 90.1029ZM120.935 92.1292L115.367 96.8073L114.8 96.133L120.369 91.4549L120.935 92.1292ZM108.624 78.2461L104.577 84.2884L103.845 83.7983L107.893 77.756L108.624 78.2461ZM68.2627 81.8636L64.8224 80.9505L64.0684 81.6622L68.2688 82.6977L69.0606 86.9509L69.8147 86.2391L69.1403 82.7932L69.1816 82.7542L72.5829 83.626L73.337 82.9142L69.1778 81.8397L68.3447 77.6255L67.5907 78.3373L68.3041 81.8246L68.2627 81.8636ZM74.8109 81.5229L69.8186 76.2343L69.1782 76.8388L74.1704 82.1274L74.8109 81.5229Z" fill="black"/>
<path fill-rule="evenodd" clip-rule="evenodd" d="M86.3032 121C88.5124 121 90.3032 119.209 90.3032 117C90.3032 114.791 88.5124 113 86.3032 113C84.0941 113 82.3032 114.791 82.3032 117C82.3032 119.209 84.0941 121 86.3032 121ZM86.3032 119C87.4078 119 88.3032 118.105 88.3032 117C88.3032 115.895 87.4078 115 86.3032 115C85.1987 115 84.3032 115.895 84.3032 117C84.3032 118.105 85.1987 119 86.3032 119Z" fill="#190505"/>
<path fill-rule="evenodd" clip-rule="evenodd" d="M84.5034 111C84.5034 110.448 84.9511 110 85.5034 110H86.5034C87.0557 110 87.5034 110.448 87.5034 111V114.113C87.5034 114.643 86.8333 115 86.3032 115C85.8377 115 85.4093 115.159 85.0694 115.426C85.0048 115.477 84.9264 115.508 84.8442 115.509C84.6564 115.51 84.5034 115.358 84.5034 115.17V111ZM85.0931 118.592C85.0242 118.54 84.9412 118.508 84.8546 118.509C84.6602 118.51 84.5034 118.668 84.5034 118.863V123C84.5034 123.552 84.9511 124 85.5034 124H86.5034C87.0557 124 87.5034 123.552 87.5034 123V119.887C87.5034 119.357 86.8333 119 86.3032 119C85.8484 119 85.429 118.848 85.0931 118.592Z" fill="#190505"/>
<path fill-rule="evenodd" clip-rule="evenodd" d="M89.3175 118.473C88.7323 118.478 88.3034 117.585 88.3034 117C88.3034 116.403 88.7307 115.478 89.3275 115.473L91.9917 115.452C92.544 115.448 92.9952 115.892 92.9996 116.444L93.0075 117.444C93.0118 117.997 92.5677 118.448 92.0154 118.452L89.3175 118.473ZM84.3034 117C84.3034 117.596 83.8776 118.516 83.2814 118.521L80.0158 118.547C79.4635 118.551 79.0123 118.107 79.0079 117.555L79 116.555C78.9957 116.002 79.4398 115.551 79.9921 115.547L83.2872 115.521C83.8729 115.516 84.3034 116.414 84.3034 117Z" fill="#190505"/>
<path fill-rule="evenodd" clip-rule="evenodd" d="M82.6098 111.83C82.2038 111.456 81.5711 111.482 81.1967 111.888L80.5188 112.623C80.1444 113.029 80.17 113.661 80.576 114.036L83.9747 117.17C84.0898 117.276 84.3033 117.157 84.3033 117C84.3033 116.748 84.35 116.506 84.4353 116.284C84.741 115.487 85.0961 114.123 84.4687 113.545L82.6098 111.83ZM89.8948 118.548C89.2676 117.97 87.9382 118.434 87.1695 118.804C86.9074 118.93 86.6136 119 86.3033 119C86.1929 119 86.1223 119.15 86.2034 119.225L89.3976 122.171C89.8036 122.545 90.4362 122.52 90.8106 122.114L91.4885 121.378C91.863 120.972 91.8373 120.34 91.4313 119.965L89.8948 118.548Z" fill="#190505"/>
<path fill-rule="evenodd" clip-rule="evenodd" d="M91.1754 113.609C91.55 113.203 91.5247 112.57 91.1189 112.195L90.3841 111.517C89.9782 111.143 89.3456 111.168 88.971 111.574L86.1247 114.657C86.015 114.776 86.1413 115 86.3031 115C86.559 115 86.8037 115.048 87.0286 115.136C87.819 115.443 89.1605 115.791 89.7358 115.168L91.1754 113.609ZM84.752 120.567C85.3272 119.944 84.8739 118.636 84.5032 117.873C84.375 117.609 84.3031 117.313 84.3031 117C84.3031 116.883 84.1415 116.806 84.062 116.892L80.8316 120.391C80.457 120.797 80.4823 121.43 80.8881 121.804L81.6229 122.483C82.0288 122.857 82.6614 122.832 83.036 122.426L84.752 120.567Z" fill="#190505"/>
<path fill-rule="evenodd" clip-rule="evenodd" d="M78.3032 112C80.5124 112 82.3032 110.209 82.3032 108C82.3032 105.791 80.5124 104 78.3032 104C76.0941 104 74.3032 105.791 74.3032 108C74.3032 110.209 76.0941 112 78.3032 112ZM78.3032 110C79.4078 110 80.3032 109.105 80.3032 108C80.3032 106.895 79.4078 106 78.3032 106C77.1987 106 76.3032 106.895 76.3032 108C76.3032 109.105 77.1987 110 78.3032 110Z" fill="#190505"/>
<path fill-rule="evenodd" clip-rule="evenodd" d="M76.5034 102C76.5034 101.448 76.9511 101 77.5034 101H78.5034C79.0557 101 79.5034 101.448 79.5034 102V105.113C79.5034 105.643 78.8333 106 78.3032 106C77.8377 106 77.4093 106.159 77.0694 106.426C77.0048 106.477 76.9264 106.508 76.8442 106.509C76.6564 106.51 76.5034 106.358 76.5034 106.17V102ZM77.0931 109.592C77.0242 109.54 76.9412 109.508 76.8546 109.509C76.6602 109.51 76.5034 109.668 76.5034 109.863V114C76.5034 114.552 76.9511 115 77.5034 115H78.5034C79.0557 115 79.5034 114.552 79.5034 114V110.887C79.5034 110.357 78.8333 110 78.3032 110C77.8484 110 77.429 109.848 77.0931 109.592Z" fill="#190505"/>
<path fill-rule="evenodd" clip-rule="evenodd" d="M81.3175 109.473C80.7323 109.478 80.3034 108.585 80.3034 108C80.3034 107.403 80.7307 106.478 81.3275 106.473L83.9917 106.452C84.544 106.448 84.9952 106.892 84.9996 107.444L85.0075 108.444C85.0118 108.997 84.5677 109.448 84.0154 109.452L81.3175 109.473ZM76.3034 108C76.3034 108.596 75.8776 109.516 75.2814 109.521L72.0158 109.547C71.4635 109.551 71.0123 109.107 71.0079 108.555L71 107.555C70.9957 107.002 71.4398 106.551 71.9921 106.547L75.2872 106.521C75.8729 106.516 76.3034 107.414 76.3034 108Z" fill="#190505"/>
<path fill-rule="evenodd" clip-rule="evenodd" d="M74.6098 102.83C74.2038 102.456 73.5711 102.482 73.1967 102.888L72.5188 103.623C72.1444 104.029 72.17 104.661 72.576 105.036L75.9747 108.17C76.0898 108.276 76.3033 108.157 76.3033 108C76.3033 107.748 76.35 107.506 76.4353 107.284C76.741 106.487 77.0961 105.123 76.4687 104.545L74.6098 102.83ZM81.8948 109.548C81.2676 108.97 79.9382 109.434 79.1695 109.804C78.9074 109.93 78.6136 110 78.3033 110C78.1929 110 78.1223 110.15 78.2034 110.225L81.3976 113.171C81.8036 113.545 82.4362 113.52 82.8106 113.114L83.4885 112.378C83.863 111.972 83.8373 111.34 83.4313 110.965L81.8948 109.548Z" fill="#190505"/>
<path fill-rule="evenodd" clip-rule="evenodd" d="M83.1754 104.609C83.55 104.203 83.5247 103.57 83.1189 103.195L82.3841 102.517C81.9782 102.143 81.3456 102.168 80.971 102.574L78.1247 105.657C78.015 105.776 78.1413 106 78.3031 106C78.559 106 78.8037 106.048 79.0286 106.136C79.819 106.443 81.1605 106.791 81.7358 106.168L83.1754 104.609ZM76.752 111.567C77.3272 110.944 76.8739 109.636 76.5032 108.873C76.375 108.609 76.3031 108.313 76.3031 108C76.3031 107.883 76.1415 107.806 76.062 107.892L72.8316 111.391C72.457 111.797 72.4823 112.43 72.8881 112.804L73.6229 113.483C74.0288 113.857 74.6614 113.832 75.036 113.426L76.752 111.567Z" fill="#190505"/>
<path fill-rule="evenodd" clip-rule="evenodd" d="M85.3032 101C87.5124 101 89.3032 99.2091 89.3032 97C89.3032 94.7909 87.5124 93 85.3032 93C83.0941 93 81.3032 94.7909 81.3032 97C81.3032 99.2091 83.0941 101 85.3032 101ZM85.3032 99C86.4078 99 87.3032 98.1046 87.3032 97C87.3032 95.8954 86.4078 95 85.3032 95C84.1987 95 83.3032 95.8954 83.3032 97C83.3032 98.1046 84.1987 99 85.3032 99Z" fill="#190505"/>
<path fill-rule="evenodd" clip-rule="evenodd" d="M83.5034 91C83.5034 90.4477 83.9511 90 84.5034 90H85.5034C86.0557 90 86.5034 90.4477 86.5034 91V94.1126C86.5034 94.6428 85.8333 95 85.3032 95C84.8377 95 84.4093 95.1591 84.0694 95.4258C84.0048 95.4765 83.9264 95.508 83.8442 95.5086C83.6564 95.5101 83.5034 95.3583 83.5034 95.1705V91ZM84.0931 98.5925C84.0242 98.54 83.9412 98.508 83.8546 98.5087C83.6602 98.5102 83.5034 98.6682 83.5034 98.8627V103C83.5034 103.552 83.9511 104 84.5034 104H85.5034C86.0557 104 86.5034 103.552 86.5034 103V99.8874C86.5034 99.3572 85.8333 99 85.3032 99C84.8484 99 84.429 98.8482 84.0931 98.5925Z" fill="#190505"/>
<path fill-rule="evenodd" clip-rule="evenodd" d="M88.3175 98.4734C87.7323 98.478 87.3034 97.5851 87.3034 96.9999C87.3034 96.4031 87.7307 95.4779 88.3275 95.4732L90.9917 95.4522C91.544 95.4478 91.9952 95.892 91.9996 96.4443L92.0075 97.4442C92.0118 97.9965 91.5677 98.4477 91.0154 98.4521L88.3175 98.4734ZM83.3034 96.9999C83.3034 97.5961 82.8776 98.5162 82.2814 98.5209L79.0158 98.5467C78.4635 98.551 78.0123 98.1069 78.0079 97.5546L78 96.5546C77.9957 96.0024 78.4398 95.5511 78.9921 95.5468L82.2872 95.5208C82.8729 95.5162 83.3034 96.4141 83.3034 96.9999Z" fill="#190505"/>
<path fill-rule="evenodd" clip-rule="evenodd" d="M81.6098 91.8303C81.2038 91.4559 80.5711 91.4815 80.1967 91.8875L79.5188 92.6226C79.1444 93.0286 79.17 93.6613 79.576 94.0357L82.9747 97.17C83.0898 97.276 83.3033 97.1568 83.3033 97.0004C83.3033 96.748 83.35 96.5065 83.4353 96.2841C83.741 95.4874 84.0961 94.1231 83.4687 93.5446L81.6098 91.8303ZM88.8948 98.5484C88.2676 97.9701 86.9382 98.4336 86.1695 98.8036C85.9074 98.9297 85.6136 99.0004 85.3033 99.0004C85.1929 99.0004 85.1223 99.1504 85.2034 99.2252L88.3976 102.171C88.8036 102.545 89.4362 102.52 89.8106 102.114L90.4885 101.378C90.863 100.972 90.8373 100.34 90.4313 99.9654L88.8948 98.5484Z" fill="#190505"/>
<path fill-rule="evenodd" clip-rule="evenodd" d="M90.1754 93.6085C90.55 93.2027 90.5247 92.57 90.1189 92.1954L89.3841 91.5172C88.9782 91.1426 88.3456 91.1679 87.971 91.5737L85.1247 94.6572C85.015 94.776 85.1413 95 85.3031 95C85.559 95 85.8037 95.0481 86.0286 95.1357C86.819 95.4435 88.1605 95.7913 88.7358 95.1681L90.1754 93.6085ZM83.752 100.567C84.3272 99.9441 83.8739 98.6358 83.5032 97.8731C83.375 97.6093 83.3031 97.313 83.3031 97C83.3031 96.8828 83.1415 96.8056 83.062 96.8918L79.8316 100.391C79.457 100.797 79.4823 101.43 79.8881 101.804L80.6229 102.483C81.0288 102.857 81.6614 102.832 82.036 102.426L83.752 100.567Z" fill="#190505"/>
<defs>
<linearGradient id="paint0_linear_4125_3" x1="99" y1="23" x2="99" y2="181" gradientUnits="userSpaceOnUse">
<stop stop-color="#6A1B9A"/>
<stop offset="0.5" stop-color="#BA68C8"/>
<stop offset="0.75" stop-color="#E57373"/>
<stop offset="0.875" stop-color="#FFB74D"/>
<stop offset="0.9375" stop-color="#FFF176"/>
<stop offset="0.96875" stop-color="#AED581"/>
<stop offset="0.984375" stop-color="#4DD0E1"/>
<stop offset="1" stop-color="#6A1B9A"/>
</linearGradient>
<linearGradient id="paint1_linear_4125_3" x1="102" y1="35" x2="102" y2="165" gradientUnits="userSpaceOnUse">
<stop stop-color="#6A1B9A"/>
<stop offset="0.5" stop-color="#BA68C8"/>
<stop offset="0.75" stop-color="#E57373"/>
<stop offset="0.875" stop-color="#FFB74D"/>
<stop offset="0.9375" stop-color="#FFF176"/>
<stop offset="0.96875" stop-color="#AED581"/>
<stop offset="0.984375" stop-color="#4DD0E1"/>
<stop offset="1" stop-color="#6A1B9A"/>
</linearGradient>
</defs>
</svg>
